<svg width="18" height="18" viewBox="0 0 18 18" fill="none" xmlns="http://www.w3.org/2000/svg">
<line y1="2.07031" x2="10.2857" y2="2.07031" stroke="white"/>
<line y1="16.2148" x2="18" y2="16.2148" stroke="white"/>
<line x1="1.78577" x2="1.78577" y2="18" stroke="white"/>
<line x1="16.2142" y1="18" x2="16.2142" y2="5.14286" stroke="white"/>
<line x1="8.01039" y1="0.882306" x2="17.3751" y2="7.76686" stroke="white"/>
<path d="M4.49995 5.1423C4.32316 5.1423 4.17182 5.10033 4.04593 5.01641C3.92004 4.93248 3.85709 4.83158 3.85709 4.71373C3.85709 4.59587 3.92004 4.49498 4.04593 4.41105C4.17182 4.32712 4.32316 4.28516 4.49995 4.28516C4.67673 4.28516 4.82807 4.32712 4.95397 4.41105C5.07986 4.49498 5.1428 4.59587 5.1428 4.71373C5.1428 4.83158 5.07986 4.93248 4.95397 5.01641C4.82807 5.10033 4.67673 5.1423 4.49995 5.1423ZM3.21423 5.99944V5.69944C3.21423 5.63873 3.23767 5.58292 3.28455 5.53203C3.33142 5.48114 3.3937 5.4423 3.47138 5.41551C3.63745 5.36016 3.8062 5.31864 3.97763 5.29096C4.14905 5.26328 4.32316 5.24944 4.49995 5.24944C4.67673 5.24944 4.85084 5.26328 5.02227 5.29096C5.1937 5.31864 5.36245 5.36016 5.52852 5.41551C5.6062 5.4423 5.66847 5.48114 5.71535 5.53203C5.76222 5.58292 5.78566 5.63873 5.78566 5.69944V5.99944H3.21423ZM3.53566 5.78516H5.46423V5.69944C5.46423 5.6798 5.45687 5.66194 5.44214 5.64587C5.4274 5.6298 5.40798 5.6173 5.38388 5.60837C5.23923 5.56016 5.09325 5.524 4.94593 5.49989C4.79861 5.47578 4.64995 5.46373 4.49995 5.46373C4.34995 5.46373 4.20129 5.47578 4.05397 5.49989C3.90664 5.524 3.76066 5.56016 3.61602 5.60837C3.59191 5.6173 3.57249 5.6298 3.55776 5.64587C3.54303 5.66194 3.53566 5.6798 3.53566 5.69944V5.78516ZM4.49995 4.92801C4.58834 4.92801 4.66401 4.90703 4.72696 4.86507C4.7899 4.8231 4.82138 4.77266 4.82138 4.71373C4.82138 4.6548 4.7899 4.60435 4.72696 4.56239C4.66401 4.52042 4.58834 4.49944 4.49995 4.49944C4.41155 4.49944 4.33589 4.52042 4.27294 4.56239C4.20999 4.60435 4.17852 4.6548 4.17852 4.71373C4.17852 4.77266 4.20999 4.8231 4.27294 4.86507C4.33589 4.90703 4.41155 4.92801 4.49995 4.92801Z" fill="white"/>
<line x1="2.57141" y1="6.37969" x2="6.42855" y2="6.37969" stroke="white" stroke-width="0.1"/>
<line x1="2.57141" y1="7.66484" x2="6.42855" y2="7.66484" stroke="white" stroke-width="0.1"/>
<line x1="2.57141" y1="8.95" x2="6.42855" y2="8.95" stroke="white" stroke-width="0.1"/>
<line x1="2.57141" y1="10.2352" x2="12.8571" y2="10.2352" stroke="white" stroke-width="0.1"/>
<line x1="2.57141" y1="12.8055" x2="14.1428" y2="12.8055" stroke="white" stroke-width="0.1"/>
<line x1="2.57141" y1="14.0945" x2="14.1428" y2="14.0945" stroke="white" stroke-width="0.1"/>
<line x1="2.57141" y1="11.5203" x2="14.1428" y2="11.5203" stroke="white" stroke-width="0.1"/>
</svg>
