<svg width="20" height="18" viewBox="0 0 20 18" fill="none" xmlns="http://www.w3.org/2000/svg">
<path d="M9.88636 16.6483C9.96212 16.6483 10.0492 16.6295 10.1477 16.592C10.2462 16.5544 10.3258 16.5056 10.3864 16.4456L18.0455 8.83104C18.2424 8.63579 18.3902 8.41299 18.4886 8.16263C18.5871 7.91242 18.6364 7.66213 18.6364 7.41176C18.6364 7.15645 18.5871 6.90113 18.4886 6.64581C18.3902 6.39049 18.2424 6.16521 18.0455 5.96996L13.9545 1.91489C13.7576 1.71965 13.5303 1.57322 13.2727 1.47559C13.0152 1.37797 12.7576 1.32916 12.5 1.32916C12.2474 1.32916 11.9949 1.37797 11.7425 1.47559C11.4899 1.57322 11.2652 1.71965 11.0682 1.91489L10.6591 2.3204L12.5 4.16771C12.697 4.37797 12.8712 4.62203 13.0227 4.89987C13.1742 5.17772 13.25 5.48185 13.25 5.81227C13.25 6.38298 13.0265 6.88611 12.5795 7.32165C12.1326 7.7572 11.6212 7.97497 11.0455 7.97497C10.6667 7.97497 10.3523 7.91865 10.1023 7.80601C9.85227 7.69337 9.62356 7.53312 9.41614 7.32526L7.75 5.6771L3.63636 9.75469C3.56061 9.82979 3.50758 9.90886 3.47727 9.99191C3.44697 10.0748 3.43182 10.1637 3.43182 10.2586C3.43182 10.4483 3.49621 10.607 3.625 10.7347C3.75379 10.8623 3.91417 10.9262 4.10614 10.9262C4.20205 10.9262 4.29167 10.9036 4.375 10.8586C4.45833 10.8135 4.5303 10.761 4.59091 10.7009L7.72727 7.59199L8.68182 8.53817L5.56818 11.6245C5.49242 11.6996 5.43939 11.7822 5.40909 11.8723C5.37879 11.9625 5.36364 12.0526 5.36364 12.1427C5.36364 12.3229 5.43182 12.4806 5.56818 12.6158C5.70455 12.7509 5.86364 12.8185 6.04545 12.8185C6.13636 12.8185 6.22348 12.7997 6.30682 12.7622C6.39015 12.7247 6.46212 12.6758 6.52273 12.6158L9.65909 9.50688L10.6136 10.4531L7.5 13.5394C7.43939 13.5995 7.39015 13.6771 7.35227 13.7721C7.31439 13.8674 7.29545 13.9625 7.29545 14.0576C7.29545 14.2378 7.36364 14.3955 7.5 14.5307C7.63636 14.6658 7.79545 14.7334 7.97727 14.7334C8.06818 14.7334 8.15152 14.7184 8.22727 14.6884C8.30303 14.6583 8.37879 14.6058 8.45455 14.5307L11.5909 11.4218L12.5455 12.368L9.40909 15.4768C9.33333 15.5519 9.2803 15.6345 9.25 15.7247C9.2197 15.8148 9.20455 15.8974 9.20455 15.9725C9.20455 16.1827 9.26515 16.3479 9.38636 16.4681C9.50758 16.5882 9.67424 16.6483 9.88636 16.6483ZM9.88773 18C9.38682 18 8.93939 17.816 8.54545 17.4481C8.15152 17.0801 7.91667 16.6249 7.84091 16.0824C7.32576 16.0091 6.89394 15.7997 6.54545 15.4543C6.19697 15.1089 5.98485 14.6809 5.90909 14.1702C5.39394 14.0951 4.96591 13.8811 4.625 13.5282C4.28409 13.1752 4.07576 12.7509 4 12.2553C3.43939 12.1802 2.97727 11.9549 2.61364 11.5795C2.25 11.204 2.06818 10.7534 2.06818 10.2278C2.06818 9.97247 2.11909 9.71677 2.22091 9.4607C2.32288 9.20463 2.46894 8.97972 2.65909 8.78598L7.75 3.73967L10.25 6.21777C10.3712 6.33792 10.5025 6.43179 10.6439 6.49937C10.7854 6.56696 10.9268 6.60075 11.0682 6.60075C11.2652 6.60075 11.4508 6.51439 11.625 6.34168C11.7992 6.16896 11.8864 5.98385 11.8864 5.78636C11.8864 5.6985 11.8598 5.59825 11.8068 5.48561C11.7538 5.37297 11.6667 5.25657 11.5455 5.13642L8.29545 1.91489C8.09848 1.71965 7.87121 1.57322 7.61364 1.47559C7.35606 1.37797 7.09848 1.32916 6.84091 1.32916C6.58833 1.32916 6.33583 1.37797 6.08341 1.47559C5.83083 1.57322 5.60652 1.7186 5.41045 1.91174L1.95455 5.33917C1.74242 5.54944 1.5947 5.77096 1.51136 6.00375C1.42803 6.23655 1.37879 6.49937 1.36364 6.79224C1.34848 7.08511 1.4053 7.37046 1.53409 7.64831C1.66288 7.92616 1.81818 8.17772 2 8.403L1.02273 9.37171C0.719697 9.0413 0.473485 8.6433 0.284091 8.17772C0.094697 7.71214 0 7.23905 0 6.75845C0 6.30788 0.0871212 5.8761 0.261364 5.46308C0.435606 5.05006 0.681818 4.68586 1 4.37046L4.43182 0.968711C4.76515 0.638298 5.14235 0.394243 5.56341 0.236546C5.98462 0.0788486 6.41644 0 6.85886 0C7.30144 0 7.73106 0.0788486 8.14773 0.236546C8.56439 0.394243 8.93939 0.638298 9.27273 0.968711L9.68182 1.37422L10.0909 0.968711C10.4242 0.638298 10.8014 0.394243 11.2225 0.236546C11.6437 0.0788486 12.0755 0 12.518 0C12.9605 0 13.3902 0.0788486 13.8068 0.236546C14.2235 0.394243 14.5985 0.638298 14.9318 0.968711L19 5.00125C19.3333 5.33166 19.5833 5.70736 19.75 6.12834C19.9167 6.54946 20 6.9775 20 7.41244C20 7.84754 19.9167 8.27159 19.75 8.68461C19.5833 9.09762 19.3333 9.46934 19 9.79975L11.3409 17.3917C11.1439 17.587 10.9202 17.7372 10.6698 17.8423C10.4193 17.9474 10.1586 18 9.88773 18Z" fill="white"/>
</svg>
