<svg width="21" height="21" viewBox="0 0 21 21" fill="none" xmlns="http://www.w3.org/2000/svg">
<path d="M4.94395 8.77346L6.6502 9.49534C6.85436 9.087 7.06582 8.69325 7.28457 8.31409C7.50332 7.93492 7.74395 7.55575 8.00645 7.17659L6.78145 6.93596L4.94395 8.77346ZM8.0502 10.5891L10.5439 13.061C11.1564 12.8276 11.8127 12.4703 12.5127 11.9891C13.2127 11.5078 13.8689 10.961 14.4814 10.3485C15.5023 9.32763 16.3007 8.19378 16.8768 6.9469C17.4528 5.70003 17.7044 4.55159 17.6314 3.50159C16.5814 3.42867 15.4294 3.68023 14.1752 4.25628C12.921 4.83232 11.7835 5.63075 10.7627 6.65159C10.1502 7.26409 9.60332 7.92034 9.12207 8.62034C8.64082 9.32034 8.28353 9.97659 8.0502 10.5891ZM11.9439 9.16721C11.6085 8.8318 11.4408 8.41982 11.4408 7.93127C11.4408 7.44273 11.6085 7.03075 11.9439 6.69534C12.2794 6.35992 12.695 6.19221 13.1908 6.19221C13.6867 6.19221 14.1023 6.35992 14.4377 6.69534C14.7731 7.03075 14.9408 7.44273 14.9408 7.93127C14.9408 8.41982 14.7731 8.8318 14.4377 9.16721C14.1023 9.50263 13.6867 9.67034 13.1908 9.67034C12.695 9.67034 12.2794 9.50263 11.9439 9.16721ZM12.3596 16.1891L14.1971 14.3516L13.9564 13.1266C13.5773 13.3891 13.1981 13.6261 12.8189 13.8375C12.4398 14.049 12.046 14.2568 11.6377 14.461L12.3596 16.1891ZM19.2064 1.90471C19.4835 3.6693 19.3122 5.38648 18.6924 7.05628C18.0726 8.72607 17.0044 10.3193 15.4877 11.836L15.9252 14.0016C15.9835 14.2933 15.9689 14.5776 15.8814 14.8547C15.7939 15.1318 15.6481 15.3724 15.4439 15.5766L11.7689 19.2516L9.93145 14.9422L6.19082 11.2016L1.88145 9.36409L5.53457 5.68909C5.73874 5.48492 5.98301 5.33909 6.26738 5.25159C6.55176 5.16409 6.83978 5.1495 7.13145 5.20784L9.29707 5.64534C10.8137 4.12867 12.4033 3.0568 14.0658 2.42971C15.7283 1.80263 17.4419 1.62763 19.2064 1.90471ZM3.43457 13.9797C3.94499 13.4693 4.56842 13.2104 5.30488 13.2031C6.04134 13.1959 6.66478 13.4474 7.1752 13.9578C7.68561 14.4683 7.93717 15.0917 7.92988 15.8281C7.92259 16.5646 7.66374 17.188 7.15332 17.6985C6.78874 18.063 6.17988 18.3766 5.32676 18.6391C4.47363 18.9016 3.29603 19.1349 1.79395 19.3391C1.99811 17.837 2.23145 16.6594 2.49395 15.8063C2.75645 14.9531 3.06999 14.3443 3.43457 13.9797ZM4.68145 15.2047C4.53561 15.3505 4.38978 15.6167 4.24395 16.0031C4.09811 16.3896 3.99603 16.7797 3.9377 17.1735C4.33145 17.1151 4.72155 17.0167 5.10801 16.8781C5.49447 16.7396 5.76061 16.5974 5.90645 16.4516C6.08145 16.2766 6.17624 16.0651 6.19082 15.8172C6.2054 15.5693 6.1252 15.3578 5.9502 15.1828C5.7752 15.0078 5.56374 14.924 5.31582 14.9313C5.0679 14.9386 4.85645 15.0297 4.68145 15.2047Z" fill="#5F6368"/>
</svg>
